# Blender 5.0.0
# www.blender.org
mtllib Untitled.mtl
o Cube
v 0.546142 1.054841 -0.222788
v 1.305383 -0.469277 -0.823244
v 0.622025 0.908010 0.318755
v 1.483377 -0.063950 0.831166
v -0.129112 1.042328 -0.383660
v -1.000000 -1.000000 -1.000000
v -0.079743 0.925053 0.439853
v -0.848520 -0.821812 0.936379
v 3.243368 1.904065 -0.435854
v 3.243368 1.447444 -0.435854
v 3.033050 1.631806 0.594504
v 3.033050 1.405496 0.594504
vn -0.0023 0.9818 0.1902
vn -0.0149 0.3474 0.9376
vn -0.9169 0.3949 0.0580
vn 0.2635 -0.9557 0.1311
vn -0.1666 0.2840 0.9442
vn 0.0486 0.3212 -0.9458
vn 0.9798 -0.0000 0.2000
vn -0.1122 0.2486 -0.9621
vn 0.6904 -0.7158 0.1052
vn -0.2894 0.9308 0.2234
vt 0.699442 0.597143
vt 0.775864 0.577051
vt 0.772223 0.679854
vt 0.636529 0.715616
vt 0.441656 0.736114
vt 0.604217 0.882479
vt 0.394790 0.983732
vt 0.400957 0.008371
vt 0.624464 0.069320
vt 0.625278 0.266372
vt 0.375000 0.250000
vt 0.125000 0.500000
vt 0.390009 0.522095
vt 0.145611 0.742909
vt 0.485856 0.699313
vt 0.514144 0.699313
vt 0.471461 0.570518
vt 0.528539 0.570518
s 0
usemtl Material
f 1/1/1 5/2/1 7/3/1 3/4/1
f 4/5/2 3/4/2 7/6/2 8/7/2
f 8/8/3 7/9/3 5/10/3 6/11/3
f 6/12/4 2/13/4 4/5/4 8/14/4
f 3/4/5 4/5/5 12/15/5 11/16/5
f 6/11/6 5/10/6 1/1/6 2/13/6
f 10/17/7 9/18/7 11/16/7 12/15/7
f 2/13/8 1/1/8 9/18/8 10/17/8
f 4/5/9 2/13/9 10/17/9 12/15/9
f 1/1/10 3/4/10 11/16/10 9/18/10
